<svg id="Livello_1" data-name="Livello 1" xmlns="http://www.w3.org/2000/svg" xmlns:xlink="http://www.w3.org/1999/xlink" viewBox="0 0 1566.09 288.04"><defs><style>.cls-1{fill:none;}.cls-2{clip-path:url(#clip-path);}.cls-3{fill:#513a2b;}.cls-4{fill:#7eaf3b;}.cls-5{fill:#be3b43;}</style><clipPath id="clip-path"><rect class="cls-1" width="1566.09" height="288.04"/></clipPath></defs><g class="cls-2"><path class="cls-3" d="M342.41,120.56a39.07,39.07,0,0,0,3.11,11.86c3,5.78,8.3,10.68,19.43,10.68,10.23,0,18.09-4.6,18.09-13.64,0-7.86-5.34-12.16-19-15.72-10.68-2.82-17.5-5.34-24.17-9.94s-10.08-11.71-10.08-21.06c0-7.86,3-14.53,9-20.17s14.53-8.45,25.21-8.45c17.94,0,32.33,10.08,36.63,28.62l-18.54,4c-1.93-7.12-7.86-13.35-18.09-13.35-8.75,0-14.24,4.15-14.24,9.34,0,5.78,6.23,8.3,19.87,12.46,9.94,3.12,16.9,6.08,20.76,8.75,8.45,5.78,12.6,14.24,12.6,25.51,0,9.79-3.41,17.79-10.38,23.87s-16.16,9-27.73,9c-12.31,0-21.95-3.71-27.73-8.6-9.19-8.3-12.31-19.72-13.35-29.81Z"/><path class="cls-3" d="M436.72,100.09H422.19V81.56h14.53V56.35H456V81.56h32.33v18.53H456v37.52c-0.15,1.78.59,5.78,6.82,6.23,5.93,0,8.6-2.52,9.94-12.75l18.09,3c-3.41,21.21-13.2,28.32-28,28.32-7.56,0-13.79-2.08-18.68-6.38a21.48,21.48,0,0,1-7.41-16.9v-39Z"/><path class="cls-3" d="M554.75,124l-0.3.29c-0.45.45-2.67,1.78-8.6,2.67-5.34.74-7.71,1.19-11.27,2.52s-4.89,3.56-4.89,7c0,4.89,4.15,7.41,12.61,7.41a25,25,0,0,0,4.45-.44c3.41-.59,8-3.41,8-7.71V124Zm-42.85-18.69a25.6,25.6,0,0,1,10.38-19,34.43,34.43,0,0,1,20.91-7,34,34,0,0,1,21.65,7.12A22.56,22.56,0,0,1,574,105v35.59c0,2.22,1.48,3.26,4.45,3.26l2.82-.44L584.41,159a23.7,23.7,0,0,1-11.86,3.41c-4.6,0-9.49-2.22-11.42-4L559.64,157c-4.89,3.56-11.27,5.34-18.83,5.34-18.39,0-30.4-9.79-30.4-25.36,0-15.87,10.53-21.8,31.73-24.76,8.45-1.19,12.6-2.67,12.6-6.82q0-7.56-10.68-7.56c-8.3,0-13,2.22-14.24,10.38Z"/><path class="cls-3" d="M603.53,160.15V141.62H623V100.09H605.31V81.56h36.33v3.86c0.15-.15,4.89-6.08,12.75-6.08q9.12,0,16,7.56c4.75,5,7.27,12.46,7.56,22.39l-18.68,3c-0.89-9.64-4.3-14.39-10.08-14.39-5.19,0-7,3-7,5.34v38.41h28v18.54H603.53Z"/><path class="cls-3" d="M712.52,100.09H698V81.56h14.53V56.35h19.28V81.56h32.33v18.53H731.79v37.52c-0.15,1.78.59,5.78,6.82,6.23,5.93,0,8.6-2.52,9.93-12.75l18.09,3c-3.41,21.21-13.2,28.32-28,28.32-7.56,0-13.79-2.08-18.68-6.38a21.49,21.49,0,0,1-7.41-16.9v-39Z"/><path class="cls-3" d="M787.75,81.56H807v48.19c0,8.45,5.19,14.09,14.53,14.09s14.38-5,14.38-12.75V81.56h19.28v78.59H836.54V156.3a27.08,27.08,0,0,1-17.2,6.08A30.43,30.43,0,0,1,796.65,153c-5.93-6.38-8.9-14.24-8.9-23.88V81.56Z"/><path class="cls-3" d="M897.6,128.86c0,8.9,6.67,15,16.9,15,11.12,0,16.31-7,16.31-23s-5.19-23-16.31-23c-10.23,0-16.9,6.08-16.9,14.83v16.16Zm-19.28,64.65v-112H897v3.85a10.82,10.82,0,0,1,2.22-1.63,26.83,26.83,0,0,1,6.23-2.67,28.48,28.48,0,0,1,9.79-1.78c10.53,0,19,3.71,25.36,11s9.49,17.35,9.49,30.55-3.11,23.43-9.49,30.7-14.83,10.82-25.36,10.82c-7,0-13.35-1.93-15.72-3.71l-1.93-1.19v36H878.32Z"/><path class="cls-3" d="M989.53,128.86c0,8.9,6.67,15,16.9,15,11.12,0,16.31-7,16.31-23s-5.19-23-16.31-23c-10.23,0-16.9,6.08-16.9,14.83v16.16Zm-19.28,64.65v-112h18.68v3.85a10.78,10.78,0,0,1,2.22-1.63,26.83,26.83,0,0,1,6.23-2.67,28.49,28.49,0,0,1,9.79-1.78c10.53,0,19,3.71,25.36,11s9.49,17.35,9.49,30.55-3.11,23.43-9.49,30.7-14.83,10.82-25.36,10.82c-7,0-13.34-1.93-15.72-3.71l-1.93-1.19v36H970.25Z"/><path class="cls-3" d="M1060.7,81.56H1080v48.19c0,8.45,5.19,14.09,14.53,14.09s14.38-5,14.38-12.75V81.56h19.28v78.59h-18.68V156.3a27.08,27.08,0,0,1-17.2,6.08A30.43,30.43,0,0,1,1069.6,153c-5.93-6.38-8.9-14.24-8.9-23.88V81.56Z"/><path class="cls-3" d="M1214.71,133.31c-1,8.6-4.45,15.57-10.53,21.06s-13.49,8-22.54,8c-20.91,0-34.55-15.27-34.55-41.52s13.64-41.52,34.55-41.52c9,0,16.46,2.67,22.54,8.15s9.49,12.31,10.53,20.91l-18.39,3c-1.33-9-6.08-13.5-14.53-13.5-10.82,0-15.42,6.82-15.42,23s4.6,23,15.27,23c8.45,0,13.35-4.45,14.68-13.49Z"/><path class="cls-3" d="M1300.94,133.31c-1,8.6-4.45,15.57-10.53,21.06s-13.49,8-22.54,8c-20.91,0-34.55-15.27-34.55-41.52s13.64-41.52,34.55-41.52c9,0,16.46,2.67,22.54,8.15s9.49,12.31,10.53,20.91l-18.39,3c-1.33-9-6.08-13.5-14.53-13.5-10.82,0-15.42,6.82-15.42,23s4.6,23,15.27,23c8.45,0,13.35-4.45,14.68-13.49Z"/></g><path class="cls-3" d="M1346.4,56.35h19.28V74.59H1346.4V56.35ZM1319,160.15V141.62h27.43V100.09h-24.17V81.56h43.45v60.06h23.43v18.54H1319Z"/><g class="cls-2"><path class="cls-3" d="M1411.4,160.15V81.56h18.68v3.86a24.3,24.3,0,0,1,16.46-6.08c9,0,16.46,3.11,22.24,9.49s8.6,14.09,8.6,23.73v47.6h-19.28V112c0-8.45-4.45-14.09-13.79-14.09-9,0-13.64,4.89-13.64,12.75v49.53H1411.4Z"/><path class="cls-3" d="M1531.54,143.84q8,0,11.57-5.34c2.52-3.71,3.71-9.49,3.71-17.65s-1.19-13.94-3.71-17.5c-2.37-3.71-6.23-5.49-11.57-5.49s-9.19,1.78-11.72,5.49c-2.37,3.56-3.56,9.34-3.56,17.5s1.19,13.94,3.56,17.65,6.38,5.34,11.72,5.34m0,18.54c-10.53,0-18.83-3.56-25.21-10.82s-9.34-17.5-9.34-30.7,3.11-23.28,9.34-30.55,14.68-11,25.21-11,18.83,3.71,25.06,11,9.49,17.35,9.49,30.55-3.11,23.43-9.49,30.7-14.53,10.82-25.06,10.82"/><path class="cls-4" d="M60.57,122A30.28,30.28,0,1,1,30.28,91.68,30.28,30.28,0,0,1,60.57,122"/><path class="cls-5" d="M186.52,50.47A50.47,50.47,0,1,1,136,0a50.47,50.47,0,0,1,50.47,50.47"/><path class="cls-3" d="M277.88,207.28a80.75,80.75,0,1,1-80.76-80.75,80.76,80.76,0,0,1,80.76,80.75"/></g></svg>