<?xml version="1.0" encoding="utf-8"?>
<!-- Generator: Adobe Illustrator 17.1.0, SVG Export Plug-In . SVG Version: 6.00 Build 0)  -->
<!DOCTYPE svg PUBLIC "-//W3C//DTD SVG 1.1//EN" "http://www.w3.org/Graphics/SVG/1.1/DTD/svg11.dtd">
<svg version="1.1" id="Livello_1" xmlns="http://www.w3.org/2000/svg" xmlns:xlink="http://www.w3.org/1999/xlink" x="0px" y="0px"
	 viewBox="0 0 1608 932" enable-background="new 0 0 1608 932" xml:space="preserve">
<g>
	<path d="M770.2,6.3c-0.1,0-0.1,0-0.2,0c-19.2,0-35.9,13.6-40,32.3c-1.5,6.9-2.2,14.9-2.2,24.1c0,44.7,19.3,78,82.4,133.2l0,0
		c47.5,42,75.7,76.9,90.7,113.1V134.5c0-70.8-57.4-128.2-128.2-128.2H770.2z"/>
	<path d="M771.7,452.5c30.7,0,47.2-15.4,47.2-59.2c0-44.7-19.3-78-82.4-133.2l0,0c-51.8-45.8-80.6-83.2-94.5-122.9v270.5
		c0,70.8,57.4,128.2,128.2,128.2h1.4L771.7,452.5z"/>
</g>
<g>
	<path d="M7.4,792.8h6.3c2.4,12.1,11,54.6,51.7,54.6c23.6,0,38.6-16,38.6-33.8c0-24.7-26-33.8-42.8-41.2
		c-26.8-11.8-52.5-23.3-52.5-55.6c0-22.6,17.1-43,45.9-43c22.8,0,33.8,11.5,40.1,18.4c5.8-7.1,6.3-12.1,6.8-15.2h5.5v45.4h-5.5
		c-7.9-31.5-28.6-42.2-46.2-42.2c-19.4,0-29.9,12.9-29.9,26.5c0,20.7,21.5,30.4,41.7,39.1c33.6,14.4,55.1,25.2,55.1,58
		c0,25.2-16,50.1-54.6,50.1c-23.6,0-39.4-12.1-47.8-21.8c-1.6,2.4-4.2,6.3-6.3,16.8H7.4V792.8z"/>
	<path d="M174.8,751.3v63.5c0,14.4,0,31,15.7,31c8.9,0,13.6-7.1,16-10.5l3.9,2.4c-8.1,17.1-25.4,17.1-27.3,17.1
		c-9.7,0-18.9-5.2-22.8-12.9c-3.4-6.3-3.9-11.8-3.9-31v-59.6h-15.2v-5.8c11.5-0.5,25.4-8.1,29.4-32.8h4.2v32.8h31.7v5.8H174.8z"/>
	<path d="M331.4,831.3c-0.5,11.8-7.1,21.8-21.5,21.8c-17.1,0-19.2-12.1-20.5-18.4c-12.9,9.2-27.8,18.4-42.2,18.4
		c-11.8,0-26-7.1-26-22.3c0-15,12.1-27.5,48.3-42.2l19.9-8.1v-5.2c0-15.5-2.4-28.1-23.9-28.1c-9.2,0-19.7,2.1-21.5,11.3
		c-1.1,5.5-2.4,14.4-11,14.4c-3.9,0-7.9-2.6-7.9-7.3c0-7.1,10.5-24.1,42.8-24.1c39.9,0,39.9,23.9,39.9,36.7v42.5
		c0,15.2,0,23.1,8.1,23.1c3.1,0,8.9-1.6,10.8-12.3H331.4z M289.4,786.5l-13.9,5.8c-13.6,5.5-33.1,16-33.1,33.6
		c0,9.2,5,18.1,15.2,18.1c11.8,0,27.3-12.3,31.7-16V786.5z"/>
	<path d="M377.1,814.5c0,26.8,0,30.2,15.5,30.2h3.7v5.8h-55.6v-5.8c18.1,0,18.1-1.1,18.1-30.2v-29.6c0-29.1,0-30.2-18.1-30.2v-5.8
		c11.8-1.6,25.4-5.8,29.6-7.1l1.8-0.5c1.3,4.2,3.7,12.6,3.7,27.5c8.1-19.4,23.9-27.5,33.6-27.5c12.1,0,18.4,9.7,18.4,16
		c0,4.7-3.7,8.9-8.7,8.9c-6.3,0-8.1-5.2-9.2-7.9c-1.3-2.9-3.1-7.9-7.3-7.9c-7.3,0-25.4,12.6-25.4,39.4V814.5z"/>
	<path d="M470.2,751.3v63.5c0,14.4,0,31,15.7,31c8.9,0,13.6-7.1,16-10.5l3.9,2.4c-8.1,17.1-25.4,17.1-27.3,17.1
		c-9.7,0-18.9-5.2-22.8-12.9c-3.4-6.3-3.9-11.8-3.9-31v-59.6h-15.2v-5.8c11.5-0.5,25.4-8.1,29.4-32.8h4.2v32.8H502v5.8H470.2z"/>
	<path d="M620.6,814.3c0,28.1,0,30.4,16,30.4v5.8c-8.9,0-21,0.8-28.1,4.2h-1.8c-4.2-7.6-4.5-19.2-4.5-25.2
		c-6.6,11.8-21,25.2-40.1,25.2c-30.4,0-32.5-24.1-32.5-35.2v-38c0-28.6,0-30.2-17.3-30.2v-5.8h35.7v72.7c0,11,0,27.5,20.2,27.5
		c7.1,0,34.1-6.3,34.1-37.5v-26.8c0-29.1,0-30.2-18.4-30.2v-5.8h36.7V814.3z"/>
	<path d="M679.9,741.3c1.3,4.5,2.4,11.5,2.1,17.3c8.1-8.4,21-17.3,37.8-17.3c28.1,0,50.6,21.5,50.6,55.1c0,31.2-19.2,58.2-53,58.2
		c-17.1,0-26.5-7.3-35.4-15.5v39.9c0,28.6,0,30.2,17.3,30.2v5.8h-54.8v-5.8h3.7c13.9,0,15.5-3.7,15.5-24.4V773.6
		c0-16-1.6-19.9-15.5-19.9h-3.7v-6c12.6-1.3,26.2-5,32-6.3H679.9z M682,830.8c4.7,5.8,14.4,17.1,31,17.1c9.2,0,36.2-4.5,36.2-52.2
		c0-42.8-27.5-46.4-35.2-46.4c-17.3,0-27.3,12.1-32,17.6V830.8z"/>
	<path d="M816.6,741.3c1.3,4.5,2.4,11.5,2.1,17.3c8.1-8.4,21-17.3,37.8-17.3c28.1,0,50.6,21.5,50.6,55.1c0,31.2-19.2,58.2-53,58.2
		c-17.1,0-26.5-7.3-35.4-15.5v39.9c0,28.6,0,30.2,17.3,30.2v5.8h-54.8v-5.8h3.7c13.9,0,15.5-3.7,15.5-24.4V773.6
		c0-16-1.6-19.9-15.5-19.9h-3.7v-6c12.6-1.3,26.2-5,32-6.3H816.6z M818.7,830.8c4.7,5.8,14.4,17.1,31,17.1c9.2,0,36.2-4.5,36.2-52.2
		c0-42.8-27.5-46.4-35.2-46.4c-17.3,0-27.3,12.1-32,17.6V830.8z"/>
	<path d="M1030.7,814.3c0,28.1,0,30.4,16,30.4v5.8c-8.9,0-21,0.8-28.1,4.2h-1.8c-4.2-7.6-4.5-19.2-4.5-25.2
		c-6.6,11.8-21,25.2-40.1,25.2c-30.4,0-32.5-24.1-32.5-35.2v-38c0-28.6,0-30.2-17.3-30.2v-5.8H958v72.7c0,11,0,27.5,20.2,27.5
		c7.1,0,34.1-6.3,34.1-37.5v-26.8c0-29.1,0-30.2-18.4-30.2v-5.8h36.7V814.3z"/>
	<path d="M1159.3,824.8c-5.5,18.6-20.2,29.9-43.6,29.9c-30.2,0-53.3-22.6-53.3-55.6c0-32.8,24.1-57.7,55.6-57.7
		c22,0,36.5,9.7,36.5,20.5c0,5.2-3.4,8.9-8.1,8.9c-6.8,0-8.9-4.5-10.5-11.3c-1.8-7.6-5.2-11.8-17.6-11.8c-22.8,0-34.6,16-34.6,47
		c0,20.5,5,53.3,37.5,53.3c24.7,0,30.7-17.8,32.3-23.1H1159.3z"/>
	<path d="M1271.3,824.8c-5.5,18.6-20.2,29.9-43.6,29.9c-30.2,0-53.3-22.6-53.3-55.6c0-32.8,24.1-57.7,55.6-57.7
		c22,0,36.5,9.7,36.5,20.5c0,5.2-3.4,8.9-8.1,8.9c-6.8,0-8.9-4.5-10.5-11.3c-1.8-7.6-5.2-11.8-17.6-11.8c-22.8,0-34.6,16-34.6,47
		c0,20.5,5,53.3,37.5,53.3c24.7,0,30.7-17.8,32.3-23.1H1271.3z"/>
	<path d="M1322.7,814.5c0,22.8-1.8,30.2,14.4,30.2h3.9v5.8h-56.7v-5.8h4.5c11.8,0,15.5-1.6,15.5-19.9v-42c0-28.9-1.6-28.9-19.9-28.9
		v-5.8c7.9-0.3,24.7-3.7,35.7-6.8h2.6V814.5z M1310.9,674.2c7.3,0,13.1,6.3,13.1,13.6c0,7.3-5.8,13.6-13.1,13.6s-13.4-6.3-13.4-13.6
		C1297.5,680.5,1303.3,674.2,1310.9,674.2z"/>
	<path d="M1382.3,741.3c2.1,6,3.1,16.3,3.4,21.8c13.4-14.7,25.2-21.8,40.4-21.8c24.1,0,32.8,16.8,32.8,34.4v38.8
		c0,28.6,0,30.2,17.3,30.2v5.8h-53.8v-5.8c18.1,0,18.1-1.6,18.1-30.2v-33.8c0-23.9-8.4-31.5-21.3-31.5c-15,0-24.7,12.6-33.6,22.6
		v42.8c0,28.3,0,30.2,17.3,30.2v5.8h-53v-5.8c17.3,0,17.3-1.6,17.3-30.2v-31.2c0-28.6,0-30.2-17.3-30.2v-5.8
		c10.8-1.6,24.4-4.2,28.9-6H1382.3z"/>
	<path d="M1547.9,741.3c31,0,56.1,23.4,56.1,56.7c0,37.3-28.1,56.7-56.1,56.7c-26.5,0-55.9-18.1-55.9-56.9
		C1492,765.2,1516.6,741.3,1547.9,741.3z M1547.9,848.4c31.2,0,34.9-27.6,34.9-49.6c0-28.3-6.8-51.2-34.9-51.2
		c-27.6,0-34.6,22.3-34.6,50.9C1513.2,819.8,1516.4,848.4,1547.9,848.4z"/>
</g>
</svg>
