<?xml version="1.0" encoding="utf-8"?>
<!-- Generator: Adobe Illustrator 17.1.0, SVG Export Plug-In . SVG Version: 6.00 Build 0)  -->
<!DOCTYPE svg PUBLIC "-//W3C//DTD SVG 1.1//EN" "http://www.w3.org/Graphics/SVG/1.1/DTD/svg11.dtd">
<svg version="1.1" xmlns="http://www.w3.org/2000/svg" xmlns:xlink="http://www.w3.org/1999/xlink"
	 viewBox="0 0 1190.6 841.9" enable-background="new 0 0 1190.6 841.9" xml:space="preserve">
<g>
	<rect x="400" y="232.8" fill="#010202" width="361" height="352.1"/>
	<g>
		<g>
			<path fill="#FFFFFF" d="M583.4,325.6C583.3,325.6,583.3,325.6,583.4,325.6c-3.1,0-5.7,2.2-6.4,5.1c-0.2,1.1-0.4,2.4-0.4,3.8
				c0,7.1,3.1,12.4,13.1,21.2l0,0c7.6,6.7,12,12.2,14.4,18V346c0-11.3-9.1-20.4-20.4-20.4H583.4z"/>
			<path fill="#FFFFFF" d="M583.6,396.6c4.9,0,7.5-2.4,7.5-9.4c0-7.1-3.1-12.4-13.1-21.2l0,0c-8.2-7.3-12.8-13.2-15-19.6v43
				c0,11.3,9.1,20.4,20.4,20.4h0.2L583.6,396.6z"/>
		</g>
		<g>
			<path fill="#FFFFFF" d="M441.5,466.1h1.1c0.4,2.2,2,9.8,9.3,9.8c4.2,0,6.9-2.9,6.9-6.1c0-4.4-4.7-6.1-7.7-7.4
				c-4.8-2.1-9.4-4.2-9.4-10c0-4,3.1-7.7,8.2-7.7c4.1,0,6.1,2.1,7.2,3.3c1-1.3,1.1-2.2,1.2-2.7h1v8.1h-1c-1.4-5.6-5.1-7.6-8.3-7.6
				c-3.5,0-5.4,2.3-5.4,4.7c0,3.7,3.9,5.4,7.5,7c6,2.6,9.9,4.5,9.9,10.4c0,4.5-2.9,9-9.8,9c-4.2,0-7-2.2-8.5-3.9
				c-0.3,0.4-0.8,1.1-1.1,3h-1.1V466.1z"/>
			<path fill="#FFFFFF" d="M471.5,458.7v11.4c0,2.6,0,5.5,2.8,5.5c1.6,0,2.4-1.3,2.9-1.9l0.7,0.4c-1.5,3.1-4.6,3.1-4.9,3.1
				c-1.7,0-3.4-0.9-4.1-2.3c-0.6-1.1-0.7-2.1-0.7-5.5v-10.7h-2.7v-1c2.1-0.1,4.6-1.5,5.3-5.9h0.8v5.9h5.7v1H471.5z"/>
			<path fill="#FFFFFF" d="M499.6,473c-0.1,2.1-1.3,3.9-3.9,3.9c-3.1,0-3.4-2.2-3.7-3.3c-2.3,1.6-5,3.3-7.6,3.3
				c-2.1,0-4.7-1.3-4.7-4c0-2.7,2.2-4.9,8.6-7.6l3.6-1.5V463c0-2.8-0.4-5-4.3-5c-1.6,0-3.5,0.4-3.9,2c-0.2,1-0.4,2.6-2,2.6
				c-0.7,0-1.4-0.5-1.4-1.3c0-1.3,1.9-4.3,7.7-4.3c7.1,0,7.1,4.3,7.1,6.6v7.6c0,2.7,0,4.1,1.5,4.1c0.6,0,1.6-0.3,1.9-2.2H499.6z
				 M492,465l-2.5,1c-2.4,1-5.9,2.9-5.9,6c0,1.6,0.9,3.2,2.7,3.2c2.1,0,4.9-2.2,5.7-2.9V465z"/>
			<path fill="#FFFFFF" d="M507.7,470c0,4.8,0,5.4,2.8,5.4h0.7v1h-10v-1c3.2,0,3.2-0.2,3.2-5.4v-5.3c0-5.2,0-5.4-3.2-5.4v-1
				c2.1-0.3,4.6-1,5.3-1.3l0.3-0.1c0.2,0.8,0.7,2.3,0.7,4.9c1.5-3.5,4.3-4.9,6-4.9c2.2,0,3.3,1.7,3.3,2.9c0,0.8-0.7,1.6-1.6,1.6
				c-1.1,0-1.5-0.9-1.6-1.4c-0.2-0.5-0.6-1.4-1.3-1.4c-1.3,0-4.6,2.3-4.6,7V470z"/>
			<path fill="#FFFFFF" d="M524.4,458.7v11.4c0,2.6,0,5.5,2.8,5.5c1.6,0,2.4-1.3,2.9-1.9l0.7,0.4c-1.5,3.1-4.6,3.1-4.9,3.1
				c-1.7,0-3.4-0.9-4.1-2.3c-0.6-1.1-0.7-2.1-0.7-5.5v-10.7h-2.7v-1c2.1-0.1,4.6-1.5,5.3-5.9h0.8v5.9h5.7v1H524.4z"/>
			<path fill="#FFFFFF" d="M551.3,470c0,5,0,5.4,2.9,5.4v1c-1.6,0-3.8,0.1-5,0.8h-0.3c-0.8-1.4-0.8-3.4-0.8-4.5
				c-1.2,2.1-3.8,4.5-7.2,4.5c-5.4,0-5.8-4.3-5.8-6.3v-6.8c0-5.1,0-5.4-3.1-5.4v-1h6.4v13c0,2,0,4.9,3.6,4.9c1.3,0,6.1-1.1,6.1-6.7
				v-4.8c0-5.2,0-5.4-3.3-5.4v-1h6.6V470z"/>
			<path fill="#FFFFFF" d="M561.9,456.9c0.2,0.8,0.4,2.1,0.4,3.1c1.5-1.5,3.8-3.1,6.8-3.1c5,0,9.1,3.9,9.1,9.9
				c0,5.6-3.4,10.4-9.5,10.4c-3.1,0-4.7-1.3-6.3-2.8v7.1c0,5.1,0,5.4,3.1,5.4v1h-9.8v-1h0.7c2.5,0,2.8-0.7,2.8-4.4v-19.9
				c0-2.9-0.3-3.6-2.8-3.6h-0.7v-1.1c2.3-0.2,4.7-0.9,5.7-1.1H561.9z M562.3,472.9c0.8,1,2.6,3.1,5.5,3.1c1.6,0,6.5-0.8,6.5-9.3
				c0-7.7-4.9-8.3-6.3-8.3c-3.1,0-4.9,2.2-5.7,3.1V472.9z"/>
			<path fill="#FFFFFF" d="M586.4,456.9c0.2,0.8,0.4,2.1,0.4,3.1c1.5-1.5,3.8-3.1,6.8-3.1c5,0,9.1,3.9,9.1,9.9
				c0,5.6-3.4,10.4-9.5,10.4c-3.1,0-4.7-1.3-6.3-2.8v7.1c0,5.1,0,5.4,3.1,5.4v1h-9.8v-1h0.7c2.5,0,2.8-0.7,2.8-4.4v-19.9
				c0-2.9-0.3-3.6-2.8-3.6h-0.7v-1.1c2.3-0.2,4.7-0.9,5.7-1.1H586.4z M586.8,472.9c0.8,1,2.6,3.1,5.5,3.1c1.6,0,6.5-0.8,6.5-9.3
				c0-7.7-4.9-8.3-6.3-8.3c-3.1,0-4.9,2.2-5.7,3.1V472.9z"/>
			<path fill="#FFFFFF" d="M624.8,470c0,5,0,5.4,2.9,5.4v1c-1.6,0-3.8,0.1-5,0.8h-0.3c-0.8-1.4-0.8-3.4-0.8-4.5
				c-1.2,2.1-3.8,4.5-7.2,4.5c-5.4,0-5.8-4.3-5.8-6.3v-6.8c0-5.1,0-5.4-3.1-5.4v-1h6.4v13c0,2,0,4.9,3.6,4.9c1.3,0,6.1-1.1,6.1-6.7
				v-4.8c0-5.2,0-5.4-3.3-5.4v-1h6.6V470z"/>
			<path fill="#FFFFFF" d="M647.8,471.9c-1,3.3-3.6,5.4-7.8,5.4c-5.4,0-9.5-4-9.5-10c0-5.9,4.3-10.3,10-10.3c3.9,0,6.5,1.7,6.5,3.7
				c0,0.9-0.6,1.6-1.5,1.6c-1.2,0-1.6-0.8-1.9-2c-0.3-1.4-0.9-2.1-3.1-2.1c-4.1,0-6.2,2.9-6.2,8.4c0,3.7,0.9,9.5,6.7,9.5
				c4.4,0,5.5-3.2,5.8-4.1H647.8z"/>
			<path fill="#FFFFFF" d="M667.8,471.9c-1,3.3-3.6,5.4-7.8,5.4c-5.4,0-9.5-4-9.5-10c0-5.9,4.3-10.3,10-10.3c3.9,0,6.5,1.7,6.5,3.7
				c0,0.9-0.6,1.6-1.5,1.6c-1.2,0-1.6-0.8-1.9-2c-0.3-1.4-0.9-2.1-3.1-2.1c-4.1,0-6.2,2.9-6.2,8.4c0,3.7,0.9,9.5,6.7,9.5
				c4.4,0,5.5-3.2,5.8-4.1H667.8z"/>
			<path fill="#FFFFFF" d="M677,470c0,4.1-0.3,5.4,2.6,5.4h0.7v1h-10.1v-1h0.8c2.1,0,2.8-0.3,2.8-3.6v-7.5c0-5.2-0.3-5.2-3.6-5.2v-1
				c1.4,0,4.4-0.7,6.4-1.2h0.5V470z M674.9,444.9c1.3,0,2.3,1.1,2.3,2.4c0,1.3-1,2.4-2.3,2.4s-2.4-1.1-2.4-2.4
				C672.5,446,673.6,444.9,674.9,444.9z"/>
			<path fill="#FFFFFF" d="M687.7,456.9c0.4,1.1,0.6,2.9,0.6,3.9c2.4-2.6,4.5-3.9,7.2-3.9c4.3,0,5.9,3,5.9,6.2v7
				c0,5.1,0,5.4,3.1,5.4v1h-9.6v-1c3.2,0,3.2-0.3,3.2-5.4V464c0-4.3-1.5-5.6-3.8-5.6c-2.7,0-4.4,2.3-6,4v7.7c0,5.1,0,5.4,3.1,5.4v1
				h-9.5v-1c3.1,0,3.1-0.3,3.1-5.4v-5.6c0-5.1,0-5.4-3.1-5.4v-1c1.9-0.3,4.4-0.8,5.2-1.1H687.7z"/>
			<path fill="#FFFFFF" d="M717.3,456.9c5.5,0,10.1,4.2,10.1,10.1c0,6.7-5,10.1-10.1,10.1c-4.7,0-10-3.2-10-10.2
				C707.3,461.2,711.8,456.9,717.3,456.9z M717.3,476.1c5.6,0,6.2-4.9,6.2-8.9c0-5.1-1.2-9.2-6.2-9.2c-4.9,0-6.2,4-6.2,9.1
				C711.1,471,711.7,476.1,717.3,476.1z"/>
		</g>
	</g>
</g>
</svg>
