<?xml version="1.0" encoding="utf-8"?>
<!-- Generator: Adobe Illustrator 17.1.0, SVG Export Plug-In . SVG Version: 6.00 Build 0)  -->
<!DOCTYPE svg PUBLIC "-//W3C//DTD SVG 1.1//EN" "http://www.w3.org/Graphics/SVG/1.1/DTD/svg11.dtd">
<svg version="1.1" id="Livello_1" xmlns="http://www.w3.org/2000/svg" xmlns:xlink="http://www.w3.org/1999/xlink" x="0px" y="0px"
	 viewBox="0 0 1052 1032" enable-background="new 0 0 1052 1032" xml:space="preserve">
<g>
	<rect x="13.4" y="14.5" fill="#010202" width="1028.6" height="1003.3"/>
	<g>
		<g>
			<path fill="#FFFFFF" d="M535.8,278.9C535.8,278.9,535.7,278.9,535.8,278.9c-8.8,0-16.4,6.2-18.2,14.7c-0.7,3.1-1,6.7-1,10.9
				c0,20.3,8.7,35.4,37.4,60.4l0,0c21.5,19,34.3,34.9,41.1,51.3V337c0-32.1-26-58.1-58.1-58.1H535.8z"/>
			<path fill="#FFFFFF" d="M536.5,481.2c13.9,0,21.4-7,21.4-26.9c0-20.3-8.7-35.4-37.4-60.4l0,0c-23.5-20.8-36.6-37.7-42.9-55.7
				v122.7c0,32.1,26,58.1,58.1,58.1h0.6L536.5,481.2z"/>
		</g>
		<g>
			<path fill="#FFFFFF" d="M131.7,679.2h3.2c1.2,6.2,5.6,27.8,26.4,27.8c12,0,19.7-8.2,19.7-17.3c0-12.6-13.3-17.3-21.8-21
				c-13.7-6-26.8-11.9-26.8-28.4c0-11.5,8.7-21.9,23.4-21.9c11.6,0,17.3,5.9,20.5,9.4c2.9-3.6,3.2-6.2,3.5-7.8h2.8v23.2h-2.8
				c-4-16.1-14.6-21.5-23.6-21.5c-9.9,0-15.3,6.6-15.3,13.5c0,10.6,11,15.5,21.3,19.9c17.1,7.4,28.1,12.8,28.1,29.6
				c0,12.8-8.2,25.6-27.8,25.6c-12,0-20.1-6.2-24.4-11.1c-0.8,1.2-2.1,3.2-3.2,8.6h-3.2V679.2z"/>
			<path fill="#FFFFFF" d="M217.1,658.1v32.4c0,7.4,0,15.8,8,15.8c4.6,0,7-3.6,8.2-5.4l2,1.2c-4.1,8.7-13,8.7-13.9,8.7
				c-5,0-9.6-2.7-11.6-6.6c-1.7-3.2-2-6-2-15.8v-30.4H200v-2.9c5.9-0.3,13-4.1,15-16.7h2.1v16.7h16.2v2.9H217.1z"/>
			<path fill="#FFFFFF" d="M297,698.9c-0.3,6-3.6,11.1-11,11.1c-8.7,0-9.8-6.2-10.4-9.4c-6.6,4.7-14.2,9.4-21.5,9.4
				c-6,0-13.3-3.6-13.3-11.4c0-7.6,6.2-14.1,24.6-21.5l10.2-4.1v-2.7c0-7.9-1.2-14.3-12.2-14.3c-4.7,0-10,1.1-11,5.8
				c-0.5,2.8-1.2,7.4-5.6,7.4c-2,0-4-1.3-4-3.7c0-3.6,5.4-12.3,21.8-12.3c20.3,0,20.3,12.2,20.3,18.7v21.7c0,7.8,0,11.8,4.1,11.8
				c1.6,0,4.6-0.8,5.5-6.3H297z M275.6,676l-7.1,2.9c-7,2.8-16.9,8.2-16.9,17.1c0,4.7,2.5,9.2,7.8,9.2c6,0,13.9-6.3,16.2-8.2V676z"
				/>
			<path fill="#FFFFFF" d="M320.3,690.3c0,13.7,0,15.4,7.9,15.4h1.9v2.9h-28.4v-2.9c9.2,0,9.2-0.5,9.2-15.4v-15.1
				c0-14.9,0-15.4-9.2-15.4v-2.9c6-0.8,13-2.9,15.1-3.6l0.9-0.3c0.7,2.1,1.9,6.4,1.9,14.1c4.1-9.9,12.2-14.1,17.1-14.1
				c6.2,0,9.4,5,9.4,8.2c0,2.4-1.9,4.6-4.4,4.6c-3.2,0-4.1-2.7-4.7-4c-0.7-1.5-1.6-4-3.7-4c-3.7,0-13,6.4-13,20.1V690.3z"/>
			<path fill="#FFFFFF" d="M367.8,658.1v32.4c0,7.4,0,15.8,8,15.8c4.6,0,7-3.6,8.2-5.4l2,1.2c-4.1,8.7-13,8.7-13.9,8.7
				c-5,0-9.6-2.7-11.6-6.6c-1.7-3.2-2-6-2-15.8v-30.4h-7.8v-2.9c5.9-0.3,13-4.1,15-16.7h2.1v16.7H384v2.9H367.8z"/>
			<path fill="#FFFFFF" d="M444.5,690.2c0,14.3,0,15.5,8.2,15.5v2.9c-4.6,0-10.7,0.4-14.3,2.1h-0.9c-2.1-3.9-2.3-9.8-2.3-12.8
				c-3.3,6-10.7,12.8-20.5,12.8c-15.5,0-16.6-12.3-16.6-17.9v-19.4c0-14.6,0-15.4-8.8-15.4v-2.9h18.2v37.1c0,5.6,0,14.1,10.3,14.1
				c3.6,0,17.4-3.2,17.4-19.1v-13.7c0-14.9,0-15.4-9.4-15.4v-2.9h18.7V690.2z"/>
			<path fill="#FFFFFF" d="M474.8,653c0.7,2.3,1.2,5.9,1.1,8.8c4.1-4.3,10.7-8.8,19.3-8.8c14.3,0,25.8,11,25.8,28.1
				c0,15.9-9.8,29.7-27,29.7c-8.7,0-13.5-3.7-18.1-7.9v20.3c0,14.6,0,15.4,8.8,15.4v2.9h-28v-2.9h1.9c7.1,0,7.9-1.9,7.9-12.4v-56.7
				c0-8.2-0.8-10.2-7.9-10.2h-1.9v-3.1c6.4-0.7,13.4-2.5,16.3-3.2H474.8z M475.9,698.6c2.4,2.9,7.4,8.7,15.8,8.7
				c4.7,0,18.5-2.3,18.5-26.6c0-21.8-14.1-23.7-17.9-23.7c-8.8,0-13.9,6.2-16.3,9V698.6z"/>
			<path fill="#FFFFFF" d="M544.5,653c0.7,2.3,1.2,5.9,1.1,8.8c4.1-4.3,10.7-8.8,19.3-8.8c14.3,0,25.8,11,25.8,28.1
				c0,15.9-9.8,29.7-27,29.7c-8.7,0-13.5-3.7-18.1-7.9v20.3c0,14.6,0,15.4,8.8,15.4v2.9h-28v-2.9h1.9c7.1,0,7.9-1.9,7.9-12.4v-56.7
				c0-8.2-0.8-10.2-7.9-10.2h-1.9v-3.1c6.4-0.7,13.4-2.5,16.3-3.2H544.5z M545.6,698.6c2.4,2.9,7.4,8.7,15.8,8.7
				c4.7,0,18.5-2.3,18.5-26.6c0-21.8-14.1-23.7-17.9-23.7c-8.8,0-13.9,6.2-16.3,9V698.6z"/>
			<path fill="#FFFFFF" d="M653.7,690.2c0,14.3,0,15.5,8.2,15.5v2.9c-4.6,0-10.7,0.4-14.3,2.1h-0.9c-2.1-3.9-2.3-9.8-2.3-12.8
				c-3.3,6-10.7,12.8-20.5,12.8c-15.5,0-16.6-12.3-16.6-17.9v-19.4c0-14.6,0-15.4-8.8-15.4v-2.9h18.2v37.1c0,5.6,0,14.1,10.3,14.1
				c3.6,0,17.4-3.2,17.4-19.1v-13.7c0-14.9,0-15.4-9.4-15.4v-2.9h18.7V690.2z"/>
			<path fill="#FFFFFF" d="M719.3,695.5c-2.8,9.5-10.3,15.3-22.2,15.3c-15.4,0-27.2-11.5-27.2-28.4c0-16.7,12.3-29.4,28.4-29.4
				c11.2,0,18.6,5,18.6,10.4c0,2.7-1.7,4.6-4.1,4.6c-3.5,0-4.6-2.3-5.4-5.8c-0.9-3.9-2.7-6-9-6c-11.6,0-17.7,8.2-17.7,24
				c0,10.4,2.5,27.2,19.1,27.2c12.6,0,15.7-9.1,16.5-11.8H719.3z"/>
			<path fill="#FFFFFF" d="M776.5,695.5c-2.8,9.5-10.3,15.3-22.2,15.3c-15.4,0-27.2-11.5-27.2-28.4c0-16.7,12.3-29.4,28.4-29.4
				c11.2,0,18.6,5,18.6,10.4c0,2.7-1.7,4.6-4.1,4.6c-3.5,0-4.5-2.3-5.4-5.8c-0.9-3.9-2.7-6-9-6c-11.6,0-17.7,8.2-17.7,24
				c0,10.4,2.5,27.2,19.1,27.2c12.6,0,15.7-9.1,16.5-11.8H776.5z"/>
			<path fill="#FFFFFF" d="M802.7,690.3c0,11.6-0.9,15.4,7.4,15.4h2v2.9h-28.9v-2.9h2.3c6,0,7.9-0.8,7.9-10.2v-21.4
				c0-14.7-0.8-14.7-10.2-14.7v-2.9c4-0.1,12.6-1.9,18.2-3.5h1.3V690.3z M796.7,618.7c3.7,0,6.7,3.2,6.7,7c0,3.7-2.9,7-6.7,7
				s-6.8-3.2-6.8-7C789.9,621.9,792.8,618.7,796.7,618.7z"/>
			<path fill="#FFFFFF" d="M833.1,653c1.1,3.1,1.6,8.3,1.7,11.1c6.8-7.5,12.8-11.1,20.6-11.1c12.3,0,16.7,8.6,16.7,17.5v19.8
				c0,14.6,0,15.4,8.8,15.4v2.9h-27.4v-2.9c9.2,0,9.2-0.8,9.2-15.4v-17.3c0-12.2-4.3-16.1-10.8-16.1c-7.6,0-12.6,6.4-17.1,11.5v21.8
				c0,14.5,0,15.4,8.8,15.4v2.9h-27v-2.9c8.8,0,8.8-0.8,8.8-15.4v-15.9c0-14.6,0-15.4-8.8-15.4v-2.9c5.5-0.8,12.4-2.1,14.7-3.1
				H833.1z"/>
			<path fill="#FFFFFF" d="M917.6,653c15.8,0,28.6,11.9,28.6,28.9c0,19-14.3,28.9-28.6,28.9c-13.5,0-28.5-9.2-28.5-29
				C889,665.2,901.6,653,917.6,653z M917.6,707.6c15.9,0,17.8-14.1,17.8-25.3c0-14.5-3.5-26.1-17.8-26.1c-14.1,0-17.7,11.4-17.7,26
				C899.9,693,901.5,707.6,917.6,707.6z"/>
		</g>
	</g>
</g>
</svg>
