<?xml version="1.0" encoding="utf-8"?>
<!-- Generator: Adobe Illustrator 17.1.0, SVG Export Plug-In . SVG Version: 6.00 Build 0)  -->
<!DOCTYPE svg PUBLIC "-//W3C//DTD SVG 1.1//EN" "http://www.w3.org/Graphics/SVG/1.1/DTD/svg11.dtd">
<svg version="1.1" id="Livello_1" xmlns="http://www.w3.org/2000/svg" xmlns:xlink="http://www.w3.org/1999/xlink" x="0px" y="0px" enable-background="new 0 0 865.5 312" viewBox="0 0 865.5 312" xml:space="preserve">
	<path fill="#FFFFFF" d="M203.2,123.2l-5.5,10.6c-2.8-2.3-5.8-3.5-9.1-3.5c-1.4,0-2.8,0.4-4,1.2c-1.2,0.8-1.9,1.9-1.9,3.2
		c0,0.9,0.4,1.8,1.2,2.5c0.8,0.7,1.5,1.3,2.2,1.5c0.7,0.3,1.6,0.6,2.8,1l3.5,1c4.1,1.2,7.3,2.9,9.6,5.1c2.3,2.2,3.4,5.3,3.4,9.3
		c0,6.4-1.8,11.1-5.5,14.2c-3.9,3.3-8.9,5-15,5c-6.6,0-12.8-2-18.5-6l5.9-11.1c4.2,3.6,8.2,5.5,12.2,5.5c1.8,0,3.3-0.5,4.7-1.4
		s2-2.2,2-4c0-2.4-2.2-4.2-6.6-5.5c-0.1,0-0.7-0.2-1.7-0.5c-2.5-0.7-4.5-1.4-6-2c-1.4-0.6-2.9-1.5-4.3-2.6c-1.4-1.1-2.5-2.5-3.1-4.2
		c-0.6-1.7-0.9-3.8-0.9-6.2c0-5.3,1.7-9.6,5.1-12.8c3.4-3.2,7.8-4.9,13.1-4.9c2.7,0,5.5,0.4,8.5,1.2
		C198.2,120.8,200.9,121.9,203.2,123.2z"/>
	<path fill="#FFFFFF" d="M226.5,147.6V173h-12.7v-25.4h-4.1v-10.5h4.1v-10.8h12.7v10.8h7.2v10.5H226.5z"/>
	<path fill="#FFFFFF" d="M279.1,137.1V173h-12.7v-4h-0.1c-1.1,1.7-2.6,3-4.5,3.9s-4.1,1.3-6.3,1.3c-5.2,0-9.6-1.9-13-5.6
		c-3.4-3.8-5.1-8.3-5.1-13.5c0-5.3,1.7-9.8,5.1-13.5c3.4-3.7,7.7-5.6,12.9-5.6c4.8,0,8.5,1.6,11.1,4.7v-3.5H279.1z M264.6,149.3
		c-1.5-1.6-3.5-2.3-6-2.3s-4.5,0.8-6,2.3c-1.5,1.6-2.2,3.5-2.2,5.8c0,2.3,0.7,4.3,2.2,5.8c1.5,1.5,3.5,2.3,6,2.3s4.5-0.8,6-2.3
		c1.5-1.5,2.2-3.4,2.2-5.8C266.8,152.8,266,150.9,264.6,149.3z"/>
	<path fill="#FFFFFF" d="M297.3,137.1v5.9h0.1c2.4-4.2,6.3-6.4,11.6-6.4h2.4v12.3c-1.4-0.8-3.2-1.2-5.4-1.2c-3.3,0-5.6,0.9-6.9,2.8
		c-1.3,1.9-1.9,4.6-1.9,8V173h-12.7v-35.9H297.3z"/>
	<path fill="#FFFFFF" d="M333.4,147.6V173h-12.7v-25.4h-4.1v-10.5h4.1v-10.8h12.7v10.8h7.2v10.5H333.4z"/>
	<path fill="#FFFFFF" d="M345.5,137.1h12.7v19.2c0,2.5,0.5,4.4,1.4,5.8c0.9,1.3,2.6,2,5,2c2.4,0,4.1-0.7,5-2s1.4-3.3,1.4-5.8v-19.2
		h12.7v21.6c0,10.3-6.4,15.5-19.1,15.5c-12.7,0-19.1-5.2-19.1-15.5V137.1z"/>
	<path fill="#FFFFFF" d="M402.2,137.1v4.1h0.1c1.1-1.7,2.7-3,4.6-3.9c2-0.9,4-1.3,6.2-1.3c5.2,0,9.6,1.9,13,5.7
		c3.4,3.8,5.1,8.3,5.1,13.6c0,5.3-1.7,9.8-5.1,13.5c-3.4,3.7-7.7,5.6-12.9,5.6c-4.8,0-8.5-1.5-11.1-4.6v21.3h-12.7v-53.8H402.2z
		 M415.9,149.3c-1.5-1.6-3.5-2.3-6-2.3s-4.5,0.8-6,2.3c-1.5,1.6-2.2,3.5-2.2,5.8c0,2.3,0.7,4.3,2.2,5.8c1.5,1.5,3.5,2.3,6,2.3
		s4.5-0.8,6-2.3c1.5-1.5,2.2-3.4,2.2-5.8C418.1,152.8,417.4,150.9,415.9,149.3z"/>
	<path fill="#FFFFFF" d="M447.9,137.1v4.1h0.1c1.1-1.7,2.7-3,4.6-3.9c2-0.9,4-1.3,6.2-1.3c5.2,0,9.6,1.9,13,5.7
		c3.4,3.8,5.1,8.3,5.1,13.6c0,5.3-1.7,9.8-5.1,13.5c-3.4,3.7-7.7,5.6-12.9,5.6c-4.8,0-8.5-1.5-11.1-4.6v21.3h-12.7v-53.8H447.9z
		 M461.7,149.3c-1.5-1.6-3.5-2.3-6-2.3s-4.5,0.8-6,2.3c-1.5,1.6-2.2,3.5-2.2,5.8c0,2.3,0.7,4.3,2.2,5.8c1.5,1.5,3.5,2.3,6,2.3
		s4.5-0.8,6-2.3c1.5-1.5,2.2-3.4,2.2-5.8C463.9,152.8,463.1,150.9,461.7,149.3z"/>
	<path fill="#FFFFFF" d="M482.1,137.1h12.7v19.2c0,2.5,0.5,4.4,1.4,5.8c0.9,1.3,2.6,2,5,2c2.4,0,4.1-0.7,5-2s1.4-3.3,1.4-5.8v-19.2
		h12.7v21.6c0,10.3-6.4,15.5-19.1,15.5s-19.1-5.2-19.1-15.5V137.1z"/>
	<path fill="#FFFFFF" d="M554.3,138v10.8c-2.3-1.7-4.5-2.5-6.6-2.5c-2.5,0-4.5,0.8-6.2,2.5c-1.7,1.7-2.5,3.8-2.5,6.2
		c0,2.6,0.8,4.7,2.5,6.3c1.7,1.7,3.8,2.5,6.4,2.5c2.5,0,4.6-0.8,6.4-2.5v10.8c-2.7,1.4-5.7,2-9,2c-5.4,0-10-1.8-13.8-5.4
		c-3.8-3.6-5.7-8-5.7-13.4c0-5.7,1.9-10.4,5.8-14c3.9-3.7,8.6-5.5,14.3-5.5C549,135.9,551.8,136.6,554.3,138z"/>
	<path fill="#FFFFFF" d="M587.2,138v10.8c-2.3-1.7-4.5-2.5-6.6-2.5c-2.5,0-4.5,0.8-6.2,2.5c-1.7,1.7-2.5,3.8-2.5,6.2
		c0,2.6,0.8,4.7,2.5,6.3c1.7,1.7,3.8,2.5,6.4,2.5c2.5,0,4.6-0.8,6.4-2.5v10.8c-2.7,1.4-5.7,2-9,2c-5.4,0-10-1.8-13.8-5.4
		c-3.8-3.6-5.7-8-5.7-13.4c0-5.7,1.9-10.4,5.8-14c3.9-3.7,8.6-5.5,14.3-5.5C581.8,135.9,584.6,136.6,587.2,138z"/>
	<path fill="#FFFFFF" d="M594.4,118.3c1.4-1.4,3.1-2.1,5-2.1s3.6,0.7,5,2.1c1.4,1.4,2.1,3.1,2.1,5s-0.7,3.6-2.1,5
		c-1.4,1.4-3.1,2.1-5,2.1s-3.6-0.7-5-2.1c-1.4-1.4-2.1-3.1-2.1-5S593,119.7,594.4,118.3z M605.8,137.1V173h-12.7v-35.9H605.8z"/>
	<path fill="#FFFFFF" d="M624.9,137.1v4.6h0.1c2.6-3.9,6.4-5.8,11.5-5.8c4.6,0,8,1.3,10.2,4c2.2,2.6,3.3,6.3,3.3,11V173h-12.7v-17.5
		c0-0.1,0-0.5,0-1.1s0-1,0-1.3c0-0.2,0-0.6,0-1.2c0-0.6-0.1-1-0.1-1.3c-0.1-0.3-0.2-0.7-0.3-1.2c-0.1-0.5-0.3-0.9-0.5-1.1
		c-0.2-0.2-0.4-0.5-0.7-0.9c-0.3-0.4-0.6-0.6-1-0.8c-0.4-0.2-0.8-0.3-1.3-0.5c-0.5-0.1-1.1-0.2-1.7-0.2c-4.4,0-6.6,2.8-6.6,8.3V173
		h-12.7v-35.9H624.9z"/>
	<g>
		<path fill="#FFFFFF" d="M676.9,135.9c-3.5,0.1-6.4,2.8-6.4,6.3c0,0,0,0,0,0.1c0,2,0.8,3.8,2.3,5.2l0.1,0.1c1.2,1.2,2.4,2,3.5,2.5
			c0.9,0.4,2,0.7,3.4,1.2l3.9,1.2c4,1.2,7.2,2.9,9.3,4.9l0.1,0.1c1.8,1.8,2.7,4.4,2.7,7.8c0,0.2,0,0.3,0,0.5c2.1-3,3.2-6.5,3.2-10.7
			c0-5.9-2.1-10.5-6.3-14c-4.2-3.5-9.3-5.2-15.4-5.2C677.3,135.9,677.1,135.9,676.9,135.9z"/>
		<path fill="#FFFFFF" d="M662.1,169.1c4.2,3.4,9.3,5.1,15.3,5.1c1.4,0,2.8-0.1,4.1-0.3c3-0.4,5.3-3,5.3-6c0,0,0,0,0-0.1
			c0-2.1-0.8-4-2.4-5.6c-1.7-1.7-4.1-2.9-7.4-3.9c-0.2-0.1-0.8-0.3-2-0.6c-2.7-0.7-4.8-1.4-6.3-2.1c-1.3-0.6-2.5-1.1-3.9-2.1
			c-1.1-0.8-2.4-2.6-2.9-3.8c-0.5-1.5-0.7-2.5-0.7-4.8c0-1,0.3-2.5,0.4-3.4c-3.9,3.4-5.9,7.9-5.9,13.6
			C655.8,161,657.9,165.6,662.1,169.1z"/>
	</g>
</svg>
